# xmcd CD database file generated by MAGIX_Freedb v0.9beta0
# 
# Track frame offsets:
#      150
#      23502
#      45207
#      81592
#      104342
#      122992
#      139002
#      158822
#      180802
#      201535
#      218452
#      234500
# 
# Disc length: 3381 seconds
# 
# Revision: 1 
# Processed by: cddbd v1.5.2PL0 Copyright (c) Steve Scherf et al.
# Submitted via: MAGIX_Freedb v0.9beta0
# 
DISCID=960d330c
DTITLE=Louis van Dijk - Jubilee
DYEAR=2001
DGENRE=Jazz
TTITLE0=Louis van Dijk - Smoke gets in your eyes
TTITLE1=Yesterdays
TTITLE2=My one and only love
TTITLE3=Soon
TTITLE4=I want to be happy
TTITLE5=Have you met Miss Jones
TTITLE6=In the wee small hours of the morning
TTITLE7=Home at last
TTITLE8=Love for sale
TTITLE9=Stars fell on Alabama
TTITLE10=What a wonderful world
TTITLE11=Blues for Pim
EXTD=YEAR: 2001
EXTT0=
EXTT1=
EXTT2=
EXTT3=
EXTT4=
EXTT5=
EXTT6=
EXTT7=
EXTT8=
EXTT9=
EXTT10=
EXTT11=
PLAYORDER=
